<svg width="116" height="56" viewBox="0 0 116 56" fill="none" xmlns="http://www.w3.org/2000/svg">
<path d="M26.396 23.4465C26.5469 23.3794 26.7063 23.3039 26.874 23.2201C27.0082 23.153 27.134 23.0943 27.2514 23.044C27.3688 22.9769 27.5029 22.9182 27.6539 22.8679L27.7545 22.6163C27.8048 22.5324 27.8467 22.4486 27.8803 22.3647C28.2157 21.5932 28.5344 20.7714 28.8363 19.8993C29.1549 19.0104 29.2807 18.0293 29.2136 16.9559C29.3142 16.7379 29.3897 16.5366 29.44 16.3521C29.5071 16.1677 29.5574 15.9748 29.591 15.7735C29.6245 15.5555 29.6329 15.3291 29.6161 15.0943C29.6161 14.8427 29.6077 14.4989 29.591 14.0628C29.6916 13.8951 29.7755 13.6687 29.8426 13.3836C29.9264 13.0985 29.9516 12.8385 29.918 12.6037L29.8426 12.1257L30.3205 12.176C30.287 12.109 30.2618 12.0503 30.2451 11.9999L30.1948 11.849C30.1277 11.6981 30.069 11.5555 30.0187 11.4213C29.9851 11.2704 29.9851 11.111 30.0187 10.9433C29.7168 10.7421 29.5071 10.4486 29.3897 10.0628C29.3226 9.92866 29.1633 9.79449 28.9117 9.66032C28.8782 9.64354 28.853 9.62677 28.8363 9.61C28.8195 9.59323 28.7776 9.55969 28.7105 9.50937C28.5763 9.39197 28.5092 9.24941 28.5092 9.0817C28.4757 9.06493 28.4337 9.04816 28.3834 9.03139C28.3499 9.01461 28.308 8.98946 28.2576 8.95591C28.0732 8.87206 27.8803 8.7882 27.679 8.70434C27.4778 8.62048 27.2849 8.57856 27.1004 8.57856C26.9159 8.57856 26.7398 8.62887 26.5721 8.7295C26.287 9.4339 25.9096 10.0209 25.44 10.4905C24.9704 10.9601 24.4841 11.3962 23.9809 11.7987C23.7126 12.0167 23.4526 12.2347 23.201 12.4528C22.9662 12.6708 22.6979 12.9224 22.396 13.2075C22.2618 13.2243 22.1277 13.2746 21.9935 13.3584C21.8593 13.4255 21.7251 13.5094 21.591 13.61C21.3897 13.7442 21.1717 13.8783 20.9369 14.0125C20.7189 14.1299 20.4757 14.1886 20.2073 14.1886C19.9725 14.1886 19.7042 14.0712 19.4023 13.8364C19.3688 13.6855 19.352 13.5513 19.352 13.4339C19.352 13.2997 19.3604 13.1739 19.3771 13.0565C19.4275 12.7882 19.4107 12.5786 19.3268 12.4276L19.3017 12.176C19.3855 11.958 19.4191 11.7484 19.4023 11.5471C19.4023 11.3459 19.3604 11.153 19.2765 10.9685C19.2094 10.7672 19.1088 10.5744 18.9746 10.3899C18.8572 10.1886 18.7314 9.98736 18.5973 9.7861C18.4966 9.60162 18.3876 9.44229 18.2702 9.30812C18.1193 9.27457 17.9767 9.24103 17.8425 9.20749C17.7251 9.15717 17.5742 9.10686 17.3897 9.05654C17.2555 9.05654 17.1549 8.97269 17.0878 8.80497L17.0375 8.52824C16.8698 8.32698 16.6015 8.15088 16.2325 7.99994C15.6958 8.2012 15.2849 8.47793 14.9998 8.83013C14.7314 9.16556 14.4463 9.59323 14.1444 10.1131C14.0438 10.2809 13.9348 10.457 13.8174 10.6414C13.7168 10.8092 13.5994 10.9936 13.4652 11.1949C13.2975 11.4465 13.0878 11.8155 12.8363 12.3018C12.6015 12.7882 12.3499 13.3249 12.0815 13.9119C11.8132 14.4821 11.5448 15.0775 11.2765 15.6981C11.0082 16.3018 10.765 16.8553 10.5469 17.3584C10.3457 17.8616 10.178 18.2725 10.0438 18.5911C9.90963 18.9098 9.84254 19.0775 9.84254 19.0943C9.6916 19.4465 9.60774 19.8658 9.59097 20.3521C9.59097 20.8217 9.6329 21.2913 9.71676 21.7609C9.81739 22.2305 9.95156 22.675 10.1193 23.0943C10.3038 23.4968 10.505 23.8155 10.723 24.0503C11.0249 24.1006 11.243 24.1257 11.3771 24.1257C11.6623 24.1257 11.8887 24.0335 12.0564 23.849C12.2241 23.6813 12.4505 23.3039 12.7356 22.7169C12.7692 22.6163 12.7859 22.5073 12.7859 22.3899C12.8027 22.306 12.8111 22.2222 12.8111 22.1383C12.8279 22.0544 12.853 21.9706 12.8866 21.8867C12.9369 21.8029 12.9956 21.7274 13.0627 21.6603C13.1465 21.5765 13.222 21.4926 13.2891 21.4087C13.4065 21.3249 13.482 21.2075 13.5155 21.0565C13.4484 20.9391 13.4316 20.8134 13.4652 20.6792C13.549 20.4276 13.6748 20.2012 13.8425 19.9999C14.0103 19.7987 14.1696 19.6226 14.3205 19.4716C14.3038 19.2704 14.3289 19.0356 14.396 18.7672C14.4799 18.4821 14.5721 18.2054 14.6727 17.937C14.7734 17.6687 14.874 17.4339 14.9746 17.2326C15.0752 17.0146 15.1507 16.8721 15.201 16.805L15.4023 16.4779L15.6036 16.8553C16.308 18.2809 17.3646 18.9936 18.7734 18.9936C19.3268 18.9936 19.8887 18.9014 20.4589 18.7169C21.0459 18.5324 21.6161 18.2976 22.1696 18.0125C22.7398 17.7106 23.2849 17.392 23.8048 17.0565C24.3247 16.7043 24.8027 16.3689 25.2388 16.0503C25.2723 15.9496 25.3142 15.8909 25.3646 15.8742C25.4316 15.8574 25.4987 15.849 25.5658 15.849L25.7922 16.1006C25.7922 16.2515 25.7503 16.3521 25.6664 16.4025C25.1298 18.2641 24.8698 19.7987 24.8866 21.0062C24.9201 22.2138 25.2639 23.0607 25.918 23.5471C26.1025 23.5471 26.2618 23.5136 26.396 23.4465Z" fill="#D658B3"/>
<path d="M44.4841 9.7861C44.5008 9.71902 44.5008 9.62677 44.4841 9.50937C44.1654 9.3752 43.8719 9.21587 43.6036 9.03139C43.352 8.83013 43.1423 8.58694 42.9746 8.30183C42.9914 8.45277 42.9495 8.50308 42.8488 8.45277C42.765 8.38568 42.6895 8.42761 42.6224 8.57856C42.4883 8.57856 42.3457 8.50308 42.1948 8.35214C41.4904 8.48631 40.8614 8.58694 40.308 8.65403C39.7545 8.72111 39.2178 8.79658 38.6979 8.88044C38.1948 8.94753 37.6748 9.03977 37.1381 9.15717C36.6182 9.27457 36.0228 9.44229 35.352 9.66032C34.983 9.74417 34.6308 9.81965 34.2954 9.88673C33.9599 9.95382 33.6497 10.0377 33.3646 10.1383C33.0794 10.2389 32.8111 10.3731 32.5595 10.5408C32.3247 10.6918 32.1235 10.893 31.9558 11.1446C32.0396 11.4297 32.0983 11.7148 32.1319 11.9999C32.1654 12.2683 32.2073 12.5366 32.2576 12.805C32.308 13.0565 32.3834 13.3165 32.4841 13.5848C32.6015 13.8364 32.7776 14.0712 33.0124 14.2892C32.895 14.6079 32.7692 14.9014 32.635 15.1698C32.5176 15.4213 32.3918 15.6729 32.2576 15.9245C32.1402 16.176 32.0228 16.436 31.9054 16.7043C31.788 16.9727 31.679 17.2578 31.5784 17.5597C31.461 17.5429 31.3939 17.5765 31.3771 17.6603C31.3604 17.7274 31.3101 17.7693 31.2262 17.7861C31.2765 18.0209 31.2178 18.2389 31.0501 18.4402C30.8992 18.6414 30.7985 18.8679 30.7482 19.1194C30.6979 19.3542 30.6811 19.6142 30.6979 19.8993C30.7314 20.1844 30.7734 20.4779 30.8237 20.7798C30.874 21.0649 30.9243 21.3417 30.9746 21.61C31.0249 21.8783 31.0585 22.1215 31.0753 22.3396C31.2597 22.4234 31.3688 22.5492 31.4023 22.7169C31.4526 22.8679 31.5449 23.002 31.679 23.1194C31.9977 23.4381 32.4086 23.6561 32.9117 23.7735C33.4149 23.9077 33.9432 23.9832 34.4966 23.9999C35.0501 24.0167 35.5952 23.9916 36.1319 23.9245C36.6685 23.8574 37.1298 23.7819 37.5155 23.6981C37.6497 23.6981 37.7671 23.7148 37.8677 23.7484C37.9683 23.7987 38.0941 23.8071 38.2451 23.7735C38.8656 23.6561 39.4275 23.5555 39.9306 23.4716C40.4505 23.3878 40.9201 23.2704 41.3394 23.1194C41.7587 22.9685 42.1277 22.7505 42.4463 22.4653C42.7818 22.1635 43.0753 21.7358 43.3268 21.1823C43.2262 21.1991 43.1507 21.1823 43.1004 21.132C43.0669 21.0649 43.0417 20.9895 43.0249 20.9056C43.0082 20.8217 42.983 20.7379 42.9495 20.654C42.9327 20.5534 42.8908 20.4695 42.8237 20.4025C42.6727 20.4192 42.547 20.3857 42.4463 20.3018C42.3457 20.218 42.2451 20.1257 42.1444 20.0251C42.0606 19.9077 41.9683 19.7903 41.8677 19.6729C41.7671 19.5387 41.6497 19.4465 41.5155 19.3962C41.1298 19.5303 40.7021 19.631 40.2325 19.6981C39.7797 19.7484 39.3855 19.8658 39.0501 20.0503C38.5134 20.0335 38.069 20.0503 37.7168 20.1006C37.3646 20.1341 37.0207 20.176 36.6853 20.2264C36.3499 20.2599 35.9893 20.2851 35.6036 20.3018C35.2346 20.3186 34.765 20.2851 34.1948 20.2012C34.3625 19.7484 34.5553 19.3207 34.7734 18.9182C34.9914 18.5157 35.2346 18.1383 35.5029 17.7861C35.7042 17.8532 35.9306 17.8867 36.1822 17.8867C36.4505 17.87 36.6769 17.9035 36.8614 17.9874C36.9956 17.9035 37.1801 17.8783 37.4149 17.9119C37.6665 17.9454 37.8593 17.9203 37.9935 17.8364C38.0606 17.8867 38.1109 17.9119 38.1444 17.9119H38.3457C38.7482 17.9287 39.1088 17.8951 39.4275 17.8113C39.7629 17.7106 40.0732 17.5848 40.3583 17.4339C40.6602 17.283 40.9453 17.1152 41.2136 16.9308C41.482 16.7295 41.7503 16.5366 42.0187 16.3521C42.0857 16.1844 42.1025 16.0251 42.069 15.8742C42.0522 15.7064 42.0103 15.5555 41.9432 15.4213C41.7755 15.4381 41.6245 15.4129 41.4904 15.3459C41.373 15.262 41.2556 15.1614 41.1381 15.044L40.7859 14.6918C40.6685 14.5576 40.5511 14.4486 40.4337 14.3647C40.417 14.2976 40.4254 14.2557 40.4589 14.2389C40.4924 14.2054 40.5008 14.1467 40.4841 14.0628C39.7964 14.0796 39.092 14.1215 38.3709 14.1886C37.6665 14.2557 37.0207 14.2641 36.4337 14.2138C36.3834 14.1131 36.3583 13.9874 36.3583 13.8364C36.375 13.6687 36.3499 13.5094 36.2828 13.3584C36.4337 13.3081 36.5847 13.2662 36.7356 13.2326C36.8866 13.1823 37.0124 13.1069 37.113 13.0062C37.4484 13.0398 37.7 13.0146 37.8677 12.9308C38.0522 12.8469 38.2535 12.8469 38.4715 12.9308C39.0249 12.5953 39.5784 12.3773 40.1319 12.2767C40.7021 12.176 41.2556 12.0838 41.7922 11.9999C42.3289 11.8993 42.8237 11.7484 43.2765 11.5471C43.7461 11.3291 44.157 10.9349 44.5092 10.3647C44.4757 10.2473 44.4589 10.1635 44.4589 10.1131V9.93705C44.4757 9.88673 44.4841 9.83642 44.4841 9.7861Z" fill="#D658B3"/>
<path fill-rule="evenodd" clip-rule="evenodd" d="M61.2891 23.2201C61.1214 23.3039 60.9621 23.3794 60.8111 23.4465C60.6769 23.5136 60.5176 23.5471 60.3331 23.5471C59.679 23.0607 59.3352 22.2138 59.3017 21.0062C59.2849 19.7987 59.5449 18.2641 60.0816 16.4025C60.1654 16.3521 60.2073 16.2515 60.2073 16.1006L59.9809 15.849C59.9138 15.849 59.8467 15.8574 59.7797 15.8742C59.7294 15.8909 59.6874 15.9496 59.6539 16.0503C59.2178 16.3689 58.7398 16.7043 58.2199 17.0565C57.7 17.392 57.1549 17.7106 56.5847 18.0125C56.0312 18.2976 55.461 18.5324 54.874 18.7169C54.3038 18.9014 53.7419 18.9936 53.1885 18.9936C51.7797 18.9936 50.7231 18.2809 50.0187 16.8553L49.8174 16.4779L49.6161 16.805C49.5658 16.8721 49.4904 17.0146 49.3897 17.2326C49.2891 17.4339 49.1885 17.6687 49.0878 17.937C48.9872 18.2054 48.895 18.4821 48.8111 18.7672C48.744 19.0356 48.7189 19.2704 48.7356 19.4716C48.5847 19.6226 48.4254 19.7987 48.2576 19.9999C48.0899 20.2012 47.9641 20.4276 47.8803 20.6792C47.8467 20.8134 47.8635 20.9391 47.9306 21.0565C47.8971 21.2075 47.8216 21.3249 47.7042 21.4087C47.6371 21.4926 47.5616 21.5765 47.4778 21.6603C47.4107 21.7274 47.352 21.8029 47.3017 21.8867C47.2681 21.9706 47.243 22.0544 47.2262 22.1383C47.2262 22.2222 47.2178 22.306 47.201 22.3899C47.201 22.5073 47.1843 22.6163 47.1507 22.7169C46.8656 23.3039 46.6392 23.6813 46.4715 23.849C46.3038 24.0335 46.0774 24.1257 45.7922 24.1257C45.6581 24.1257 45.44 24.1006 45.1381 24.0503C44.9201 23.8155 44.7189 23.4968 44.5344 23.0943C44.3667 22.675 44.2325 22.2305 44.1319 21.7609C44.048 21.2913 44.0061 20.8217 44.0061 20.3521C44.0228 19.8658 44.1067 19.4465 44.2576 19.0943C44.2576 19.0775 44.3247 18.9098 44.4589 18.5911C44.5931 18.2725 44.7608 17.8616 44.962 17.3584C45.1801 16.8553 45.4233 16.3018 45.6916 15.6981C45.96 15.0775 46.2283 14.4821 46.4966 13.9119C46.765 13.3249 47.0166 12.7882 47.2514 12.3018C47.5029 11.8155 47.7126 11.4465 47.8803 11.1949C48.0145 10.9936 48.1319 10.8092 48.2325 10.6414C48.3499 10.457 48.4589 10.2809 48.5595 10.1131C48.8614 9.59323 49.1465 9.16556 49.4149 8.83013C49.7 8.47793 50.1109 8.2012 50.6476 7.99994C51.0166 8.15088 51.2849 8.32698 51.4526 8.52824L51.5029 8.80497C51.57 8.97269 51.6707 9.05654 51.8048 9.05654C51.9893 9.10686 52.1403 9.15717 52.2577 9.20749C52.3918 9.24103 52.5344 9.27457 52.6853 9.30812C52.8027 9.44229 52.9117 9.60162 53.0124 9.7861C53.1465 9.98736 53.2723 10.1886 53.3897 10.3899C53.5239 10.5744 53.6245 10.7672 53.6916 10.9685C53.7755 11.153 53.8174 11.3459 53.8174 11.5471C53.8342 11.7484 53.8006 11.958 53.7168 12.176L53.7419 12.4276C53.8258 12.5786 53.8426 12.7882 53.7922 13.0565C53.7755 13.1739 53.7671 13.2997 53.7671 13.4339C53.7671 13.5513 53.7839 13.6855 53.8174 13.8364C54.1193 14.0712 54.3876 14.1886 54.6224 14.1886C54.8908 14.1886 55.134 14.1299 55.352 14.0125C55.5868 13.8783 55.8048 13.7442 56.0061 13.61C56.1403 13.5094 56.2744 13.4255 56.4086 13.3584C56.5428 13.2746 56.6769 13.2243 56.8111 13.2075C57.113 12.9224 57.3813 12.6708 57.6161 12.4528C57.8677 12.2347 58.1277 12.0167 58.396 11.7987C58.8992 11.3962 59.3855 10.9601 59.8551 10.4905C60.3247 10.0209 60.7021 9.4339 60.9872 8.7295C61.1549 8.62887 61.331 8.57856 61.5155 8.57856C61.7 8.57856 61.8929 8.62048 62.0941 8.70434C62.2954 8.7882 62.4883 8.87206 62.6727 8.95591C62.7231 8.98946 62.765 9.01461 62.7985 9.03139C62.8488 9.04816 62.8908 9.06493 62.9243 9.0817C62.9243 9.24941 62.9914 9.39197 63.1256 9.50937C63.1927 9.55969 63.2346 9.59323 63.2514 9.61C63.2681 9.62677 63.2933 9.64354 63.3268 9.66032C63.5784 9.79449 63.7377 9.92866 63.8048 10.0628C63.8964 10.3639 64.0442 10.6087 64.2482 10.7974C64.3839 10.5632 64.5548 10.3603 64.7608 10.1886C65.0627 9.92027 65.4065 9.70224 65.7922 9.53453C66.178 9.35004 66.5889 9.20749 67.025 9.10686C67.461 8.98946 67.8803 8.88044 68.2828 8.77981C68.9369 8.66241 69.591 8.52824 70.2451 8.3773C70.8992 8.22635 71.6036 8.17604 72.3583 8.22635C72.4589 8.17604 72.5763 8.15088 72.7105 8.15088C72.8614 8.13411 73.0124 8.12573 73.1633 8.12573H73.591C73.7419 8.10895 73.8677 8.07541 73.9683 8.0251C74.0522 8.12573 74.1696 8.19281 74.3205 8.22635C74.4883 8.24313 74.6644 8.3186 74.8489 8.45277C75.0501 8.30183 75.2178 8.26828 75.352 8.35214C75.5029 8.436 75.6371 8.52824 75.7545 8.62887C75.8719 8.7295 75.9809 8.82174 76.0816 8.9056C76.199 8.98946 76.3164 9.03139 76.4338 9.03139C76.5512 9.18233 76.6937 9.32489 76.8614 9.45906C77.0459 9.59323 77.2136 9.73579 77.3646 9.88673C77.5323 10.0209 77.6665 10.1718 77.7671 10.3396C77.8845 10.5073 77.9432 10.7001 77.9432 10.9182C77.9264 11.002 77.9516 11.0523 78.0187 11.0691C78.0857 11.0859 78.1361 11.1194 78.1696 11.1698C78.1864 11.6897 78.1025 12.1425 77.918 12.5282C77.7503 12.8972 77.5323 13.241 77.2639 13.5597C77.0124 13.8783 76.7273 14.1802 76.4086 14.4653C76.1067 14.7505 75.83 15.0523 75.5784 15.371C75.7461 15.589 75.939 15.7819 76.157 15.9496L76.8111 16.4528C77.0459 16.6205 77.2639 16.7966 77.4652 16.9811C77.6665 17.1656 77.8342 17.3836 77.9683 17.6352C78.0019 17.6687 78.0438 17.7022 78.0941 17.7358C78.1444 17.7526 78.1948 17.7777 78.2451 17.8113C78.2954 17.979 78.3625 18.1551 78.4463 18.3396C78.5302 18.5073 78.5973 18.675 78.6476 18.8427C78.7147 18.9936 78.7566 19.1362 78.7734 19.2704C78.7902 19.3878 78.7566 19.4884 78.6728 19.5723C78.7734 19.6226 78.8321 19.7064 78.8489 19.8238C78.8656 19.9412 78.8656 20.0335 78.8489 20.1006C78.547 20.4863 78.3373 20.7547 78.2199 20.9056C78.1025 21.0565 78.0187 21.1739 77.9683 21.2578C77.918 21.3249 77.8593 21.3836 77.7922 21.4339C77.7419 21.4842 77.6161 21.5932 77.4149 21.7609C76.6602 22.2138 75.8803 22.6163 75.0753 22.9685C74.287 23.3207 73.4568 23.5639 72.5847 23.6981C72.4505 23.8825 72.1906 24.0083 71.8048 24.0754C71.4359 24.1593 71.092 24.2347 70.7734 24.3018C70.7063 24.2683 70.6644 24.218 70.6476 24.1509C70.6476 24.1006 70.614 24.0586 70.547 24.0251C70.5302 24.1928 70.4547 24.2767 70.3205 24.2767C70.1864 24.2934 70.0187 24.2599 69.8174 24.176C69.6329 24.109 69.4317 24.0083 69.2136 23.8742C69.0124 23.7568 68.8363 23.6477 68.6853 23.5471C68.6015 23.6813 68.5092 23.8155 68.4086 23.9496C68.3247 24.0838 68.2157 24.176 68.0816 24.2264C67.8971 24.1928 67.7545 24.1677 67.6539 24.1509C67.57 24.1341 67.4862 24.1677 67.4023 24.2515C67.3017 24.2012 67.2178 24.1425 67.1507 24.0754C67.1004 24.0083 67.0417 23.9412 66.9746 23.8742C66.9243 23.8238 66.8572 23.7735 66.7734 23.7232C66.7063 23.6729 66.6057 23.631 66.4715 23.5974C66.505 23.5303 66.4883 23.4297 66.4212 23.2955C66.3541 23.1446 66.2535 23.0523 66.1193 23.0188C66.1864 22.9014 66.1528 22.7588 66.0187 22.5911C65.9013 22.4066 65.809 22.2054 65.7419 21.9874C65.7755 21.8029 65.8006 21.6016 65.8174 21.3836C65.8342 21.1656 65.9348 21.0398 66.1193 21.0062C66.1025 20.8888 66.0774 20.7882 66.0438 20.7043L65.9432 20.4528C66.0606 20.3521 66.1444 20.2347 66.1948 20.1006C66.2451 19.9496 66.287 19.7987 66.3205 19.6477C66.3541 19.4968 66.396 19.3459 66.4463 19.1949C66.4967 19.044 66.5889 18.9182 66.7231 18.8175C66.874 18.3144 66.9914 17.9454 67.0753 17.7106C67.1591 17.4591 67.2178 17.2159 67.2514 16.9811C67.3017 16.7463 67.352 16.4947 67.4023 16.2264C67.4694 15.958 67.5784 15.6226 67.7294 15.2201C67.7126 14.9685 67.7377 14.7505 67.8048 14.566C67.8719 14.3647 67.939 14.1718 68.0061 13.9874C68.0899 13.7861 68.157 13.5848 68.2073 13.3836C68.2577 13.1656 68.2493 12.914 68.1822 12.6289C67.9474 12.6456 67.7797 12.7295 67.679 12.8804C67.5784 13.0146 67.5113 13.1991 67.4778 13.4339C67.3436 13.5681 67.1759 13.6352 66.9746 13.6352C66.7901 13.6184 66.6224 13.6352 66.4715 13.6855C65.8845 13.4507 65.3981 13.1152 65.0124 12.6792C64.8694 12.5176 64.7368 12.3456 64.6146 12.1633L64.2577 12.1257L64.3331 12.6037C64.3667 12.8385 64.3415 13.0985 64.2577 13.3836C64.1906 13.6687 64.1067 13.8951 64.0061 14.0628C64.0229 14.4989 64.0312 14.8427 64.0312 15.0943C64.048 15.3291 64.0396 15.5555 64.0061 15.7735C63.9725 15.9748 63.9222 16.1677 63.8551 16.3521C63.8048 16.5366 63.7294 16.7379 63.6287 16.9559C63.6958 18.0293 63.57 19.0104 63.2514 19.8993C62.9495 20.7714 62.6308 21.5932 62.2954 22.3647C62.2618 22.4486 62.2199 22.5324 62.1696 22.6163L62.069 22.8679C61.918 22.9182 61.7839 22.9769 61.6665 23.044C61.5491 23.0943 61.4233 23.153 61.2891 23.2201ZM71.679 11.3962C72.5344 11.2117 73.3897 11.1362 74.2451 11.1698C73.8258 11.6729 73.3646 12.1341 72.8614 12.5534C72.3583 12.9559 71.7797 13.2913 71.1256 13.5597C70.9579 13.241 70.7231 12.9895 70.4212 12.805C70.1361 12.6205 69.8509 12.4108 69.5658 12.176C70.1361 11.8406 70.8405 11.5807 71.679 11.3962ZM74.8489 18.7924C74.7147 18.893 74.6224 19.0272 74.5721 19.1949C74.1528 19.3459 73.7503 19.5136 73.3646 19.6981C72.9956 19.8658 72.6099 20.0335 72.2073 20.2012C71.8216 20.3689 71.4191 20.5282 70.9998 20.6792C70.5805 20.8134 70.1193 20.914 69.6161 20.9811C69.8006 20.4444 69.9935 19.8909 70.1948 19.3207C70.396 18.7505 70.5889 18.2222 70.7734 17.7358C71.1424 17.6855 71.5029 17.6016 71.8551 17.4842C72.2241 17.3668 72.6015 17.283 72.9872 17.2326C73.3897 17.1656 73.809 17.1656 74.2451 17.2326C74.6979 17.283 75.1927 17.4507 75.7294 17.7358C75.7461 17.937 75.7042 18.0964 75.6036 18.2138C75.5029 18.3144 75.3855 18.415 75.2514 18.5157C75.1172 18.5995 74.983 18.6918 74.8489 18.7924Z" fill="#D658B3"/>
<path d="M93.6665 9.50937C93.6832 9.62677 93.6832 9.71902 93.6665 9.7861C93.6665 9.83642 93.6581 9.88673 93.6413 9.93705V10.1131C93.6413 10.1635 93.6581 10.2473 93.6916 10.3647C93.3394 10.9349 92.9285 11.3291 92.4589 11.5471C92.0061 11.7484 91.5113 11.8993 90.9746 11.9999C90.438 12.0838 89.8845 12.176 89.3143 12.2767C88.7608 12.3773 88.2073 12.5953 87.6539 12.9308C87.4359 12.8469 87.2346 12.8469 87.0501 12.9308C86.8824 13.0146 86.6308 13.0398 86.2954 13.0062C86.1948 13.1069 86.069 13.1823 85.918 13.2326C85.7671 13.2662 85.6161 13.3081 85.4652 13.3584C85.5323 13.5094 85.5574 13.6687 85.5407 13.8364C85.5407 13.9874 85.5658 14.1131 85.6161 14.2138C86.2031 14.2641 86.8489 14.2557 87.5533 14.1886C88.2744 14.1215 88.9788 14.0796 89.6665 14.0628C89.6832 14.1467 89.6749 14.2054 89.6413 14.2389C89.6078 14.2557 89.5994 14.2976 89.6162 14.3647C89.7336 14.4486 89.851 14.5576 89.9684 14.6918L90.3206 15.044C90.438 15.1614 90.5554 15.262 90.6728 15.3459C90.8069 15.4129 90.9579 15.4381 91.1256 15.4213C91.1927 15.5555 91.2346 15.7064 91.2514 15.8742C91.2849 16.0251 91.2681 16.1844 91.2011 16.3521C90.9327 16.5366 90.6644 16.7295 90.396 16.9308C90.1277 17.1152 89.8426 17.283 89.5407 17.4339C89.2556 17.5848 88.9453 17.7106 88.6099 17.8113C88.2912 17.8951 87.9306 17.9287 87.5281 17.9119H87.3268C87.2933 17.9119 87.243 17.8867 87.1759 17.8364C87.0417 17.9203 86.8489 17.9454 86.5973 17.9119C86.3625 17.8783 86.178 17.9035 86.0438 17.9874C85.8593 17.9035 85.6329 17.87 85.3646 17.8867C85.113 17.8867 84.8866 17.8532 84.6853 17.7861C84.417 18.1383 84.1738 18.5157 83.9558 18.9182C83.7377 19.3207 83.5449 19.7484 83.3772 20.2012C83.9474 20.2851 84.417 20.3186 84.786 20.3018C85.1717 20.2851 85.5323 20.2599 85.8677 20.2264C86.2031 20.176 86.547 20.1341 86.8992 20.1006C87.2514 20.0503 87.6958 20.0335 88.2325 20.0503C88.5679 19.8658 88.9621 19.7484 89.4149 19.6981C89.8845 19.631 90.3122 19.5303 90.6979 19.3962C90.8321 19.4465 90.9495 19.5387 91.0501 19.6729C91.1507 19.7903 91.243 19.9077 91.3268 20.0251C91.4275 20.1257 91.5281 20.218 91.6287 20.3018C91.7294 20.3857 91.8551 20.4192 92.0061 20.4025C92.0732 20.4695 92.1151 20.5534 92.1319 20.654C92.1654 20.7379 92.1906 20.8217 92.2074 20.9056C92.2241 20.9895 92.2493 21.0649 92.2828 21.132C92.3331 21.1823 92.4086 21.1991 92.5092 21.1823C92.2577 21.7358 91.9642 22.1635 91.6287 22.4653C91.3101 22.7505 90.9411 22.9685 90.5218 23.1194C90.1025 23.2704 89.6329 23.3878 89.113 23.4716C88.6099 23.5555 88.048 23.6561 87.4275 23.7735C87.2765 23.8071 87.1507 23.7987 87.0501 23.7484C86.9495 23.7148 86.8321 23.6981 86.6979 23.6981C86.3122 23.7819 85.8509 23.8574 85.3143 23.9245C84.7776 23.9916 84.2325 24.0167 83.679 23.9999C83.1256 23.9832 82.5973 23.9077 82.0941 23.7735C81.591 23.6561 81.1801 23.4381 80.8614 23.1194C80.7273 23.002 80.635 22.8679 80.5847 22.7169C80.5512 22.5492 80.4421 22.4234 80.2577 22.3396C80.2409 22.1215 80.2073 21.8783 80.157 21.61C80.1067 21.3417 80.0564 21.0649 80.0061 20.7798C79.9558 20.4779 79.9138 20.1844 79.8803 19.8993C79.8635 19.6142 79.8803 19.3542 79.9306 19.1194C79.9809 18.8679 80.0816 18.6414 80.2325 18.4402C80.4002 18.2389 80.4589 18.0209 80.4086 17.7861C80.4925 17.7693 80.5428 17.7274 80.5595 17.6603C80.5763 17.5765 80.6434 17.5429 80.7608 17.5597C80.8614 17.2578 80.9704 16.9727 81.0878 16.7043C81.2052 16.436 81.3226 16.176 81.44 15.9245C81.5742 15.6729 81.7 15.4213 81.8174 15.1698C81.9516 14.9014 82.0774 14.6079 82.1948 14.2892C81.96 14.0712 81.7839 13.8364 81.6665 13.5848C81.5658 13.3165 81.4904 13.0565 81.44 12.805C81.3897 12.5366 81.3478 12.2683 81.3143 11.9999C81.2807 11.7148 81.222 11.4297 81.1382 11.1446C81.3059 10.893 81.5071 10.6918 81.7419 10.5408C81.9935 10.3731 82.2618 10.2389 82.547 10.1383C82.8321 10.0377 83.1423 9.95382 83.4778 9.88673C83.8132 9.81965 84.1654 9.74417 84.5344 9.66032C85.2052 9.44229 85.8006 9.27457 86.3205 9.15717C86.8572 9.03977 87.3772 8.94753 87.8803 8.88044C88.4002 8.79658 88.9369 8.72111 89.4904 8.65403C90.0438 8.58694 90.6728 8.48631 91.3772 8.35214C91.5281 8.50308 91.6707 8.57856 91.8048 8.57856C91.8719 8.42761 91.9474 8.38568 92.0312 8.45277C92.1319 8.50308 92.1738 8.45277 92.157 8.30183C92.3248 8.58694 92.5344 8.83013 92.786 9.03139C93.0543 9.21587 93.3478 9.3752 93.6665 9.50937Z" fill="#D658B3"/>
<path fill-rule="evenodd" clip-rule="evenodd" d="M96.3583 22.5911C96.5092 22.2389 96.6769 21.7274 96.8614 21.0565C97.1801 21.3417 97.4484 21.5848 97.6665 21.7861C97.9013 21.9874 98.1528 22.1802 98.4212 22.3647C98.7063 22.5324 99.0333 22.7085 99.4023 22.893C99.7881 23.0607 100.283 23.262 100.887 23.4968C102.094 23.9664 103.092 24.2851 103.88 24.4528C104.669 24.6373 105.323 24.6289 105.843 24.4276C105.994 24.4108 106.111 24.3605 106.195 24.2767C106.279 24.2096 106.354 24.1257 106.421 24.0251L106.622 23.7232C106.69 23.6226 106.773 23.5387 106.874 23.4716C106.807 23.4549 106.74 23.4549 106.673 23.4716C106.622 23.4716 106.589 23.4465 106.572 23.3962C106.673 23.2788 106.731 23.1278 106.748 22.9433C106.765 22.7421 106.757 22.5408 106.723 22.3396C106.69 22.1215 106.614 21.9119 106.497 21.7106C106.396 21.4926 106.27 21.3081 106.119 21.1572C105.734 21.1236 105.432 21.0985 105.214 21.0817L104.61 20.9811C104.409 20.9308 104.182 20.8804 103.931 20.8301C103.696 20.763 103.36 20.6792 102.924 20.5786C102.488 20.4779 102.144 20.3941 101.893 20.327C101.658 20.2431 101.432 20.1509 101.214 20.0503C101.012 19.9496 100.794 19.8238 100.56 19.6729C100.325 19.522 100.006 19.3207 99.6036 19.0691C99.6203 18.9853 99.5952 18.9433 99.5281 18.9433C99.4778 18.9433 99.4526 18.9098 99.4526 18.8427C100.006 18.6079 100.627 18.3899 101.314 18.1886C102.002 17.9874 102.648 17.7442 103.251 17.4591C103.855 17.1572 104.367 16.7798 104.786 16.327C105.222 15.8742 105.465 15.2788 105.516 14.5408C105.532 14.4234 105.532 14.3312 105.516 14.2641C105.499 14.197 105.474 14.1299 105.44 14.0628C105.423 13.9957 105.415 13.937 105.415 13.8867C105.415 13.8196 105.432 13.7442 105.465 13.6603C105.331 13.4087 105.214 13.1488 105.113 12.8804C105.012 12.5953 104.912 12.3186 104.811 12.0503C104.71 11.7651 104.593 11.5052 104.459 11.2704C104.342 11.0188 104.182 10.8008 103.981 10.6163V10.3144C103.847 10.2305 103.729 10.1551 103.629 10.088C103.545 10.0041 103.436 9.92866 103.302 9.86157C103.033 9.44229 102.69 9.10686 102.27 8.85528C101.868 8.58694 101.499 8.32698 101.163 8.07541C100.509 8.1425 99.9642 8.35214 99.5281 8.70434C99.1088 9.05654 98.7231 9.45906 98.3709 9.91189C98.0187 10.3647 97.6749 10.8343 97.3394 11.3207C97.004 11.7903 96.6182 12.1928 96.1822 12.5282C96.1319 12.4108 95.9893 12.3186 95.7545 12.2515C95.5365 12.1677 95.3352 12.1425 95.1507 12.176C94.983 12.545 94.8489 12.9475 94.7482 13.3836C94.6476 13.8196 94.547 14.2641 94.4463 14.7169C94.3625 15.1698 94.2619 15.631 94.1445 16.1006C94.0438 16.5534 93.9097 16.9978 93.7419 17.4339C93.7587 17.5178 93.7671 17.6268 93.7671 17.7609C93.7671 17.8783 93.7587 18.0041 93.7419 18.1383C93.7252 18.2557 93.7 18.3563 93.6665 18.4402C93.6329 18.5073 93.5826 18.5157 93.5155 18.4653C93.6162 18.7169 93.6413 18.9601 93.591 19.1949C93.5407 19.4297 93.4736 19.6645 93.3897 19.8993C93.3227 20.1341 93.264 20.3857 93.2136 20.654C93.1633 20.9224 93.113 21.2075 93.0627 21.5094C93.1298 21.6268 93.1885 21.7442 93.2388 21.8616C93.2891 21.979 93.3562 22.0377 93.4401 22.0377C93.4065 22.1551 93.3981 22.2557 93.4149 22.3396C93.4317 22.4066 93.4484 22.4821 93.4652 22.566C93.4988 22.6331 93.5239 22.7169 93.5407 22.8175C93.5575 22.9014 93.5491 23.0104 93.5155 23.1446C93.7 23.111 93.809 23.153 93.8426 23.2704C93.8929 23.3878 93.9348 23.5136 93.9684 23.6477C94.1193 23.6477 94.2283 23.6645 94.2954 23.6981C94.3793 23.7484 94.4463 23.7903 94.4967 23.8238C94.547 23.8742 94.6057 23.9161 94.6728 23.9496C94.7398 23.9832 94.8489 23.9832 94.9998 23.9496C95.1004 23.8825 95.1927 23.8071 95.2765 23.7232C95.3604 23.6394 95.5113 23.6142 95.7294 23.6477C96.0145 23.2788 96.2241 22.9266 96.3583 22.5911ZM99.83 13.1572C100.065 12.9391 100.274 12.696 100.459 12.4276C100.778 12.5282 101.079 12.7379 101.365 13.0565C101.666 13.3752 101.851 13.7945 101.918 14.3144C101.348 14.5492 100.744 14.8008 100.107 15.0691C99.4694 15.3207 98.8572 15.48 98.2702 15.5471C98.3373 15.1781 98.4547 14.8595 98.6224 14.5911C98.7902 14.306 98.9746 14.0544 99.1759 13.8364C99.3939 13.6016 99.612 13.3752 99.83 13.1572Z" fill="#D658B3"/>
<path fill-rule="evenodd" clip-rule="evenodd" d="M84.9308 43.5221C84.9141 43.4047 84.8554 43.3208 84.7547 43.2705C84.8386 43.1866 84.8721 43.086 84.8554 42.9686C84.8386 42.8344 84.7967 42.6919 84.7296 42.5409C84.6793 42.3732 84.6122 42.2055 84.5283 42.0378C84.4445 41.8533 84.3774 41.6772 84.327 41.5095C84.2767 41.4759 84.2264 41.4508 84.1761 41.434C84.1258 41.4005 84.0839 41.3669 84.0503 41.3334C83.9161 41.0818 83.7484 40.8638 83.5472 40.6793C83.3459 40.4948 83.1279 40.3187 82.8931 40.151L82.239 39.6479C82.021 39.4801 81.8281 39.2873 81.6604 39.0692C81.912 38.7506 82.1887 38.4487 82.4906 38.1636C82.8092 37.8785 83.0943 37.5766 83.3459 37.2579C83.6143 36.9393 83.8323 36.5954 84 36.2265C84.1845 35.8407 84.2683 35.3879 84.2516 34.868C84.218 34.8177 84.1677 34.7841 84.1006 34.7674C84.0335 34.7506 84.0084 34.7003 84.0252 34.6164C84.0252 34.3984 83.9665 34.2055 83.8491 34.0378C83.7484 33.8701 83.6143 33.7191 83.4465 33.585C83.2956 33.434 83.1279 33.2915 82.9434 33.1573C82.7757 33.0231 82.6331 32.8806 82.5157 32.7296C82.3983 32.7296 82.2809 32.6877 82.1635 32.6038C82.0629 32.52 81.9539 32.4277 81.8365 32.3271C81.7191 32.2265 81.5849 32.1342 81.434 32.0504C81.2998 31.9665 81.1321 32.0001 80.9308 32.151C80.7463 32.0168 80.5702 31.9414 80.4025 31.9246C80.2516 31.891 80.1342 31.824 80.0503 31.7233C79.9497 31.7736 79.8239 31.8072 79.673 31.824H79.2453C79.0943 31.824 78.9434 31.8323 78.7925 31.8491C78.6583 31.8491 78.5409 31.8743 78.4403 31.9246C77.6855 31.8743 76.9811 31.9246 76.327 32.0755C75.673 32.2265 75.0189 32.3606 74.3648 32.478C73.9623 32.5787 73.543 32.6877 73.1069 32.8051C72.6709 32.9057 72.26 33.0483 71.8742 33.2328C71.4932 33.3984 71.1532 33.6131 70.854 33.8769C70.7907 33.6387 70.745 33.3653 70.717 33.0567C70.5325 32.8554 70.3312 32.6541 70.1132 32.4529C69.912 32.2516 69.6772 32.0671 69.4088 31.8994C69.0398 32.0671 68.805 32.3103 68.7044 32.629C68.6373 32.7632 68.6373 32.8806 68.7044 32.9812L68.7547 33.2579C68.7547 33.5598 68.6122 33.7611 68.3271 33.8617C68.2935 34.3313 68.2264 34.8344 68.1258 35.3711C68.0419 35.891 67.9078 36.4193 67.7233 36.956C67.5556 37.4927 67.3375 38.0126 67.0692 38.5158C66.8176 39.0022 66.5157 39.4382 66.1635 39.824C65.8113 40.2097 65.4759 40.5535 65.1572 40.8554C64.8386 41.1405 64.5032 41.3921 64.1509 41.6101C63.7987 41.8281 63.413 42.021 62.9937 42.1887C62.5912 42.3397 62.1384 42.4822 61.6352 42.6164L61.2076 42.6667L61.0566 42.3397C60.956 42.0713 60.8805 41.7443 60.8302 41.3585C60.7966 40.956 60.7883 40.5451 60.805 40.1258C60.8386 39.6898 60.8973 39.2621 60.9811 38.8428C61.0818 38.4235 61.2159 38.0546 61.3837 37.7359C61.3669 37.4508 61.2998 37.1573 61.1824 36.8554C61.0818 36.5367 60.9644 36.2349 60.8302 35.9497C60.7631 35.782 60.696 35.6311 60.6289 35.4969C60.5786 35.346 60.5367 35.2034 60.5032 35.0692C60.2516 34.9686 60.0587 34.8261 59.9245 34.6416C59.8071 34.4571 59.7065 34.2894 59.6226 34.1384C59.5388 33.9539 59.4549 33.8198 59.3711 33.7359C59.2872 33.652 59.1279 33.6185 58.8931 33.6353C58.8092 33.7527 58.7086 33.8869 58.5912 34.0378C58.4738 34.172 58.2977 34.2642 58.0629 34.3145C57.9623 34.6332 57.8868 34.977 57.8365 35.346C57.8029 35.564 57.761 35.7988 57.7107 36.0504C57.6604 36.2852 57.6101 36.5871 57.5598 36.956V37.2328C57.3082 37.9875 57.174 38.8512 57.1572 39.824C57.1572 40.7799 57.1824 41.8365 57.2327 42.9938L57.2579 43.3963C57.2914 43.4466 57.3333 43.4969 57.3837 43.5472C57.434 43.5808 57.4759 43.6227 57.5094 43.673L58.0629 44.2768L57.6352 44.4026C57.7359 44.5703 57.8281 44.738 57.912 44.9057C57.9958 45.0567 58.0797 45.2244 58.1635 45.4089C58.2977 45.7107 58.4319 45.9959 58.566 46.2642C58.717 46.5158 58.935 46.7087 59.2201 46.8428C59.304 46.8428 59.3962 46.868 59.4969 46.9183C59.5975 46.9686 59.673 47.0609 59.7233 47.195C60.1929 47.2453 60.587 47.2705 60.9057 47.2705C61.0902 47.2873 61.283 47.304 61.4843 47.3208C61.7023 47.3208 61.9539 47.3376 62.239 47.3711C62.9434 47.0692 63.5723 46.7925 64.1258 46.5409C64.696 46.2894 65.1992 46.021 65.6352 45.7359C66.0881 45.434 66.4906 45.0986 66.8428 44.7296C67.195 44.3439 67.5304 43.8743 67.8491 43.3208L68.1006 43.0189L68.4528 42.9183L68.5535 42.2894L69.0566 42.4655C69.0902 42.4319 69.1321 42.3648 69.1824 42.2642C69.2327 42.1636 69.2746 42.0881 69.3082 42.0378C69.3753 41.9204 69.434 41.8114 69.4843 41.7107C69.5514 41.5933 69.6268 41.4927 69.7107 41.4089C69.8616 41.0734 70.0629 40.6793 70.3145 40.2265C70.566 39.7736 70.826 39.2537 71.0943 38.6667C71.1614 38.2642 71.2201 37.8785 71.2704 37.5095C71.3152 37.2634 71.3749 37.0024 71.4495 36.7264C71.7661 36.9969 72.1341 37.216 72.5535 37.3837C72.7044 37.3334 72.8721 37.3166 73.0566 37.3334C73.2579 37.3334 73.4256 37.2663 73.5598 37.1321C73.5933 36.8973 73.6604 36.7128 73.761 36.5787C73.8616 36.4277 74.0294 36.3439 74.2642 36.3271C74.3312 36.6122 74.3396 36.8638 74.2893 37.0818C74.239 37.2831 74.1719 37.4843 74.0881 37.6856C74.021 37.8701 73.9539 38.063 73.8868 38.2642C73.8197 38.4487 73.7946 38.6667 73.8113 38.9183C73.6604 39.3208 73.5514 39.6562 73.4843 39.9246C73.434 40.1929 73.3837 40.4445 73.3333 40.6793C73.2998 40.9141 73.2411 41.1573 73.1572 41.4089C73.0734 41.6437 72.956 42.0126 72.805 42.5158C72.6709 42.6164 72.5786 42.7422 72.5283 42.8931C72.478 43.0441 72.4361 43.195 72.4025 43.346C72.369 43.4969 72.3271 43.6479 72.2767 43.7988C72.2264 43.933 72.1426 44.0504 72.0252 44.151L72.1258 44.4026C72.1593 44.4864 72.1845 44.5871 72.2013 44.7045C72.0168 44.738 71.9161 44.8638 71.8994 45.0818C71.8826 45.2998 71.8574 45.5011 71.8239 45.6856C71.891 45.9036 71.9832 46.1049 72.1006 46.2894C72.2348 46.4571 72.2684 46.5996 72.2013 46.717C72.3354 46.7506 72.4361 46.8428 72.5032 46.9938C72.5702 47.1279 72.587 47.2286 72.5535 47.2957C72.6876 47.3292 72.7883 47.3711 72.8554 47.4214C72.9392 47.4718 73.0063 47.5221 73.0566 47.5724C73.1237 47.6395 73.1824 47.7066 73.2327 47.7736C73.2998 47.8407 73.3837 47.8994 73.4843 47.9497C73.5681 47.8659 73.652 47.8323 73.7359 47.8491C73.8365 47.8659 73.979 47.891 74.1635 47.9246C74.2977 47.8743 74.4067 47.782 74.4906 47.6479C74.5912 47.5137 74.6834 47.3795 74.7673 47.2453C74.9182 47.346 75.0943 47.455 75.2956 47.5724C75.5136 47.7066 75.7149 47.8072 75.8994 47.8743C76.1006 47.9581 76.2683 47.9917 76.4025 47.9749C76.5367 47.9749 76.6122 47.891 76.6289 47.7233C76.696 47.7569 76.7296 47.7988 76.7296 47.8491C76.7463 47.9162 76.7883 47.9665 76.8554 48.0001C77.174 47.933 77.5178 47.8575 77.8868 47.7736C78.2725 47.7066 78.5325 47.5808 78.6667 47.3963C79.5388 47.2621 80.369 47.0189 81.1572 46.6667C81.9623 46.3145 82.7421 45.912 83.4969 45.4592C83.6981 45.2915 83.8239 45.1824 83.8742 45.1321C83.9413 45.0818 84 45.0231 84.0503 44.956C84.1006 44.8722 84.1845 44.7548 84.3019 44.6038C84.4193 44.4529 84.6289 44.1845 84.9308 43.7988C84.9476 43.7317 84.9476 43.6395 84.9308 43.5221ZM77.761 35.0944C78.6164 34.9099 79.4717 34.8344 80.327 34.868C79.9078 35.3711 79.4465 35.8323 78.9434 36.2516C78.4403 36.6541 77.8616 36.9896 77.2076 37.2579C77.0398 36.9393 76.805 36.6877 76.5032 36.5032C76.218 36.3187 75.9329 36.1091 75.6478 35.8743C76.218 35.5388 76.9224 35.2789 77.761 35.0944ZM80.9308 42.4906C80.7967 42.5913 80.7044 42.7254 80.6541 42.8931C80.2348 43.0441 79.8323 43.2118 79.4465 43.3963C79.0776 43.564 78.6918 43.7317 78.2893 43.8994C77.9036 44.0671 77.5011 44.2265 77.0818 44.3774C76.6625 44.5116 76.2013 44.6122 75.6981 44.6793C75.8826 44.1426 76.0755 43.5892 76.2767 43.0189C76.478 42.4487 76.6709 41.9204 76.8554 41.434C77.2243 41.3837 77.5849 41.2998 77.9371 41.1824C78.3061 41.065 78.6834 40.9812 79.0692 40.9309C79.4717 40.8638 79.891 40.8638 80.327 40.9309C80.7799 40.9812 81.2746 41.1489 81.8113 41.434C81.8281 41.6353 81.7862 41.7946 81.6855 41.912C81.5849 42.0126 81.4675 42.1133 81.3333 42.2139C81.1992 42.2977 81.065 42.39 80.9308 42.4906Z" fill="#D658B3"/>
<path d="M48.2767 47.5472C48.8302 47.3963 49.3417 47.2453 49.8113 47.0944L50.3899 46.9435C50.608 46.9435 50.8176 46.9351 51.0189 46.9183C51.2369 46.9015 51.4465 46.8764 51.6478 46.8428L52.2516 46.7925C52.4528 46.7757 52.6457 46.7674 52.8302 46.7674C53.3166 46.7674 53.7862 46.8428 54.239 46.9938C54.5744 46.9099 54.8595 46.868 55.0943 46.868H55.2453C55.3124 46.868 55.413 46.8596 55.5472 46.8428C55.631 46.759 55.7149 46.6835 55.7987 46.6164C55.8994 46.5493 56.0755 46.4906 56.327 46.4403L56.2767 46.1636C56.3438 46.0965 56.3774 45.9959 56.3774 45.8617C56.3941 45.8114 56.3438 45.7107 56.2264 45.5598L56.0503 44.478C55.8826 44.3439 55.7065 44.2432 55.522 44.1762C55.3543 44.0923 55.1782 44.0168 54.9937 43.9497C54.7925 43.8827 54.5996 43.8072 54.4151 43.7233C54.2306 43.6395 54.0377 43.5053 53.8365 43.3208C53.7526 43.304 53.652 43.2957 53.5346 43.2957H53.3333C53.2998 43.2789 53.2076 43.2286 53.0566 43.1447C52.8554 43.1783 52.6373 43.195 52.4025 43.195H51.6981C51.1111 43.2118 50.5157 43.2453 49.912 43.2957C49.325 43.346 48.7799 43.5053 48.2767 43.7736C48.0755 43.7233 47.8994 43.6982 47.7484 43.6982H47.522C47.4549 43.6982 47.3795 43.7149 47.2956 43.7485C47.3291 43.1279 47.4214 42.5745 47.5723 42.0881C47.74 41.6017 47.9245 41.1154 48.1258 40.629C48.2432 40.3606 48.3522 40.0923 48.4528 39.824C48.5702 39.5556 48.6541 39.2034 48.7044 38.7674C48.7883 38.7003 48.847 38.6248 48.8805 38.5409C48.9308 38.4403 48.9727 38.3481 49.0063 38.2642C49.0398 38.1803 49.065 38.1049 49.0818 38.0378C49.1153 37.9707 49.1656 37.8952 49.2327 37.8114C49.2998 37.4424 49.3837 37.1321 49.4843 36.8806C49.5849 36.629 49.6939 36.3774 49.8113 36.1258C49.912 35.891 50.0042 35.6562 50.0881 35.4214C50.1887 35.1866 50.2809 34.9015 50.3648 34.5661C50.4151 34.5661 50.4906 34.4906 50.5912 34.3397C50.6415 33.9707 50.5996 33.6772 50.4654 33.4592C50.3312 33.2244 50.1719 32.998 49.9874 32.7799L49.8868 32.6793C49.8533 32.629 49.7694 32.5619 49.6352 32.478C49.3669 32.478 49.0314 32.411 48.6289 32.2768C48.2264 32.1258 47.8742 31.9749 47.5723 31.824C47.5052 31.8407 47.4214 31.8659 47.3208 31.8994C47.2537 31.933 47.153 31.9917 47.0189 32.0755C46.8176 32.9309 46.5912 33.7275 46.3396 34.4655C46.0881 35.2034 45.8197 35.9497 45.5346 36.7045C45.3669 37.1405 45.1992 37.585 45.0314 38.0378C44.8805 38.4739 44.6876 39.0105 44.4528 39.6479C44.369 39.7988 44.2935 39.9665 44.2264 40.151C44.1593 40.3355 44.1593 40.5032 44.2264 40.6541C44.0922 40.8386 43.9832 41.0567 43.8994 41.3082C43.8323 41.5598 43.7652 41.8198 43.6981 42.0881C43.6813 42.172 43.6646 42.2474 43.6478 42.3145C43.6478 42.3816 43.631 42.4487 43.5975 42.5158C43.5136 42.8177 43.4549 43.1363 43.4214 43.4718C43.4046 43.8072 43.413 44.1426 43.4465 44.478C43.4969 44.7967 43.5807 45.1154 43.6981 45.434C43.8155 45.7359 43.9748 46.0042 44.1761 46.239C44.1929 46.3732 44.218 46.4822 44.2516 46.5661L44.4025 46.7674C44.4696 46.8344 44.5451 46.9602 44.6289 47.1447C45.1153 47.564 45.7778 47.7736 46.6164 47.7736C47.1698 47.7736 47.7233 47.6982 48.2767 47.5472Z" fill="#D658B3"/>
<path d="M39.3962 47.3963C39.7987 47.4298 40.1342 47.4382 40.4025 47.4214C40.6876 47.2034 40.9727 46.9938 41.2579 46.7925C41.543 46.5745 41.8029 46.3397 42.0377 46.0881C42.0881 45.803 42.0713 45.5682 41.9874 45.3837C41.9036 45.1824 41.7946 45.0063 41.6604 44.8554C41.5262 44.6877 41.3753 44.5367 41.2076 44.4026C41.0566 44.2516 40.9224 44.0923 40.805 43.9246C39.5472 43.9078 38.2893 43.8575 37.0314 43.7736C35.7904 43.6898 34.6164 43.4801 33.5094 43.1447C33.4088 42.9602 33.3166 42.7757 33.2327 42.5913C33.1488 42.39 33.0901 42.1636 33.0566 41.912C33.1405 41.7778 33.2243 41.652 33.3082 41.5346C33.4088 41.4005 33.4507 41.216 33.434 40.9812C33.7023 40.7296 33.9539 40.478 34.1887 40.2265C34.4403 39.9581 34.7002 39.7066 34.9686 39.4718C35.2537 39.2202 35.5472 39.0022 35.8491 38.8177C36.1677 38.6164 36.5283 38.4571 36.9308 38.3397C37.3837 37.8365 37.9623 37.4592 38.6667 37.2076C39.3878 36.9393 40.1509 36.6961 40.956 36.478C41.3082 36.3774 41.6352 36.1762 41.9371 35.8743C42.239 35.5724 42.4486 35.2453 42.566 34.8931C42.6834 34.5409 42.6751 34.2055 42.5409 33.8869C42.4067 33.5514 42.0881 33.3082 41.5849 33.1573C41.5849 33.0567 41.6017 32.9896 41.6352 32.956C41.6688 32.9057 41.652 32.8386 41.5849 32.7548C41.3837 32.738 41.2327 32.6961 41.1321 32.629C41.0482 32.5451 40.9392 32.5116 40.805 32.5284C40.8218 32.4948 40.847 32.4361 40.8805 32.3523C40.914 32.2684 40.8889 32.2265 40.805 32.2265C40.7715 32.3103 40.7296 32.3523 40.6792 32.3523C40.6457 32.3355 40.6038 32.3019 40.5535 32.2516C40.5031 32.2013 40.4444 32.151 40.3774 32.1007C40.327 32.0504 40.26 32.0336 40.1761 32.0504C40.0419 32.1007 39.8994 32.151 39.7484 32.2013C39.5975 32.2349 39.4801 32.1845 39.3962 32.0504C39.2956 32.2181 39.153 32.3523 38.9686 32.4529C38.8008 32.5535 38.6164 32.6541 38.4151 32.7548C38.2306 32.8386 38.0461 32.9309 37.8616 33.0315C37.6772 33.1154 37.5178 33.2328 37.3837 33.3837C37.0314 33.4676 36.7212 33.585 36.4528 33.7359C36.1845 33.8869 35.9245 34.0546 35.673 34.239C35.4214 34.4068 35.1614 34.5745 34.8931 34.7422C34.6415 34.8931 34.3396 35.0105 33.9874 35.0944C33.8868 35.2286 33.7694 35.346 33.6352 35.4466C33.5178 35.5305 33.392 35.6227 33.2579 35.7233C33.1405 35.8072 33.0231 35.9078 32.9057 36.0252C32.805 36.1258 32.6457 36.2265 32.4277 36.3271C31.9413 36.8638 31.4633 37.4089 30.9937 37.9623C30.5409 38.499 30.1887 39.1447 29.9371 39.8994C29.9203 40.4026 29.9371 40.9309 29.9874 41.4843C30.0377 42.021 30.1384 42.5493 30.2893 43.0692C30.4403 43.5892 30.6415 44.0839 30.8931 44.5535C31.1447 45.0063 31.4717 45.3921 31.8742 45.7107C32.1593 45.7778 32.3857 45.8952 32.5535 46.063C32.7212 46.2139 32.8889 46.3816 33.0566 46.5661C33.8281 46.8344 34.6751 47.0609 35.5975 47.2453C36.5199 47.4298 37.4256 47.5388 38.3145 47.5724C38.6499 47.4214 39.0105 47.3627 39.3962 47.3963Z" fill="#D658B3"/>
<path d="M90.6602 33.2654C90.3713 33.3292 90.1726 33.415 90.064 33.5227C89.9359 33.6321 89.859 33.7667 89.8333 33.9265C89.7865 34.0684 89.7802 34.2265 89.8146 34.401C89.849 34.5754 89.8736 34.7507 89.8885 34.9268C90.4036 35.2182 91.0955 35.3961 91.9641 35.4606C92.8311 35.5055 93.7345 35.5177 94.6744 35.4973C95.6127 35.4573 96.5201 35.4003 97.3966 35.3261C98.2731 35.252 98.9671 35.2228 99.4785 35.2387C100.54 35.2671 101.368 35.3153 101.963 35.3833C102.536 35.4333 102.934 35.4982 103.156 35.5779C103.524 35.527 103.811 35.4338 104.015 35.2983C104.22 35.1628 104.383 35.011 104.506 34.8429C104.628 34.6553 104.728 34.4498 104.807 34.2263C104.886 34.0029 104.984 33.768 105.101 33.5217C105.01 33.3717 104.971 33.1484 104.985 32.8516C104.999 32.5548 105.097 32.32 105.279 32.147C105.121 32.1406 104.995 32.0429 104.901 31.8538C104.805 31.6452 104.791 31.4887 104.861 31.3842C104.543 31.3323 104.208 31.3114 103.855 31.3215C103.482 31.3137 103.119 31.3148 102.767 31.3249C102.415 31.335 102.081 31.3337 101.766 31.3209C101.43 31.2903 101.14 31.2261 100.896 31.1285C99.9208 31.1913 98.9152 31.2468 97.8795 31.295C96.8244 31.3449 95.8374 31.3889 94.9187 31.4273C94.5958 31.5531 94.2112 31.6447 93.7649 31.7022C93.3169 31.7401 92.8811 31.8065 92.4575 31.9015C92.0323 31.9769 91.6519 32.1174 91.3161 32.3232C90.9804 32.5289 90.7618 32.843 90.6602 33.2654Z" fill="#D658B3"/>
<path d="M24.488 33.5227C24.3794 33.415 24.1806 33.3292 23.8918 33.2654C23.7902 32.843 23.5715 32.5289 23.2358 32.3232C22.9001 32.1174 22.5196 31.9769 22.0944 31.9015C21.6709 31.8065 21.2351 31.7401 20.7871 31.7022C20.3408 31.6447 19.9562 31.5531 19.6333 31.4273C18.7145 31.3889 17.7276 31.3449 16.6724 31.295C15.6368 31.2468 14.6312 31.1913 13.6556 31.1285C13.4119 31.2261 13.1221 31.2903 12.786 31.3209C12.471 31.3337 12.1374 31.335 11.7851 31.3249C11.4329 31.3148 11.07 31.3137 10.6966 31.3215C10.3444 31.3114 10.0091 31.3323 9.69083 31.3842C9.76047 31.4887 9.74723 31.6452 9.65111 31.8538C9.55665 32.0429 9.43067 32.1406 9.27319 32.147C9.45473 32.32 9.55257 32.5548 9.5667 32.8516C9.58083 33.1484 9.54232 33.3717 9.45116 33.5217C9.56765 33.768 9.66549 34.0029 9.74467 34.2263C9.82386 34.4498 9.92418 34.6553 10.0456 34.8429C10.1687 35.011 10.3325 35.1628 10.5368 35.2983C10.7411 35.4338 11.0275 35.527 11.3959 35.5779C11.6185 35.4982 12.0163 35.4333 12.5894 35.3833C13.1837 35.3153 14.0117 35.2671 15.0735 35.2387C15.5849 35.2228 16.2788 35.252 17.1554 35.3261C18.0319 35.4003 18.9393 35.4573 19.8775 35.4973C20.8175 35.5177 21.7209 35.5055 22.5879 35.4606C23.4565 35.3961 24.1484 35.2182 24.6634 34.9268C24.6783 34.7507 24.703 34.5754 24.7374 34.401C24.7717 34.2265 24.7655 34.0684 24.7186 33.9265C24.6929 33.7667 24.616 33.6321 24.488 33.5227Z" fill="#D658B3"/>
</svg>
